<?xml version="1.0" encoding="utf-8"?>
<!-- Generator: Adobe Illustrator 23.0.3, SVG Export Plug-In . SVG Version: 6.00 Build 0)  -->
<svg version="1.1" id="Capa_1" xmlns="http://www.w3.org/2000/svg" x="0px" y="0px"
     viewBox="0 0 1200 1200" enable-background="new 0 0 1200 1200" xml:space="preserve">
<g>
	<path fill="#DBCFC9" d="M573.212,372.773c-4.035-32.096-23.902-60.863-52.335-76.808c-20.92-11.732-44.723-18.943-67.62-25.694
		c-15.053-4.438-55.042-12.359-58.075-31.189c-2.846-17.674,21.992-41.132,31.791-52.798c11.198-13.333,24.337-27.141,42.914-27.969
		c20.949-0.934,45.536,8.208,64.971,14.938c8.818,3.053,15.638,5.829,24.928,2.539c12.311-4.36,21.506-16.652,29.701-26.136
		c16.096-18.629,31.603-37.781,48.359-55.831c6.92-7.455,14.441-16.563,23.761-21.197c16.625-8.265,37.719-3.88,53.985,3.187
		c19.239,8.359,27.997,22.547,39.617,39.066c11.444,16.27,26.302,29.651,43.617,39.46c16.768,9.499,35.945,16.109,55.258,17.465
		c17.264,1.212,34.853-5.574,51.832-3.019c36.635,5.512,42.988,49.052,24.272,75.107c-10.474,14.581-27.418,27.007-44.189,33.32
		c-23.152,8.714-47.76,6.457-70.023,18.973c-27.612,15.523-47.923,48.966-50.39,52.821c-0.767,1.198-1.387,2.198-1.804,2.876
		c-3.101,0.285-7.174,0.976-11.699,2.648c-5.667,2.094-9.885,4.931-12.651,7.13c-5.714-1.889-11.657-1.598-16.988,0.518
		c6.114-25.095,19.013-47.746,37.918-65.945c4.246-4.087-5.156-17.672-8.543-14.411c-23.735,22.848-38.57,52.092-42.896,84.723
		c-6.247-1.466-12.691-0.308-17.457,3.749c-5.264-44.678,6.351-88.65,32.555-125.507c3.989-5.611-8.61-16.582-12.357-11.312
		c-28.782,40.482-41.08,89.366-33.108,138.556c-4.387,0.404-8.496,2.216-11.644,5.607c-4.197-1.861-8.637-2.078-12.775-0.966
		c-4.311-22.166-3.902-44.435,1.11-66.652c0.901-3.994-15.245-8.362-16.043-4.825c-4.928,21.842-5.369,43.975-1.417,65.807
		c-1.697-0.41-3.452-0.633-5.272-0.562c-4.592,0.179-8.522,1.968-11.342,5.058c-0.012-0.007-0.025-0.012-0.038-0.019
		c-4.41-40.335-22.325-77.082-51.09-105.705c-2.881-2.867-18.29-4.947-14.695-1.369c28.354,28.213,45.583,64.329,49.889,104.016
		c-2.996,0.6-5.881,2.002-8.538,4.328c-6.292-4.511-13.706-5.7-19.53-1.566C575.895,374.116,574.569,373.313,573.212,372.773z
		 M1055.26,817.144c-15.794-75.992-63.788-140.404-110.982-200.029c-53.161-67.164-108.442-132.585-169.297-192.93
		c-4.605,1.702-9.707,1.272-14.096-2.494c-5.95,4.134-13.135,3.228-19.486-1.451c-5.211,4.335-11.179,5.271-17.074,3.926
		c36.373,32.555,60.395,76.212,68.402,124.682c1.773,10.734-13.379,10.686-14.955,1.146c-7.959-48.183-32.39-90.931-70.618-121.501
		c-0.549-0.439-1.008-0.913-1.414-1.404c-4.168-0.169-8.606-1.76-12.766-4.085c-0.217,0.133-0.438,0.25-0.656,0.375
		c12.323,19.325,18.201,41.576,17.18,64.597c-0.339,7.633-15.832,12.566-15.411,3.056c0.994-22.424-5.266-43.701-18.082-62.09
		c-0.647-0.929-0.906-1.91-0.909-2.895c-4.782-1.07-9.243-3.631-12.742-7.573c-0.878,0.717-1.809,1.35-2.778,1.912
		c-10.006,47.088-9.979,95.085,0.1,142.173c1.381,6.454-14.978,10.058-16.343,3.683c-10.168-47.503-10.239-96.096-0.307-143.615
		c-0.835-0.224-1.655-0.509-2.464-0.838c-5.378,5.599-13.925,7.28-21.176,4.498c-3.303,3.575-7.2,6.397-11.41,8.102
		c-33.769,37.733-55.127,84.069-61.452,134.579c-0.521,4.158-14.483,6.027-14.728,7.984c6.664-53.223,29.865-101.882,66.739-140.767
		c0.006-0.006,0.015-0.011,0.021-0.017c-3.027-0.087-6.1-0.838-9.142-2.327c-9.044,6.84-20.613,11.179-31.309,7.993
		c-0.064,0.04-0.105,0.092-0.172,0.13C403.501,529.2,291.936,679.164,276.808,858.021c41.367-16.481,87.806-20.049,133.717-16.209
		c30.662,2.565,62.897,7.547,90.627,21.58c15.836,8.014,35.559,20.669,32.997,40.161c23.004,8.357,45.177,19.134,66.041,31.691
		c28.877,17.379,51.727,40.214,61.022,72.596c1.573,0.313,2.725,1.241,2.975,2.999c5.206,36.628-11.183,60.788-37.004,76.145
		c77.231,13.381,157.45,13.843,234.374-1.429c66.648-13.232,138.578-24.149,174.65-88.915
		C1065.497,944.052,1067.309,875.115,1055.26,817.144z"/>
    <path fill="#FAAA38" d="M299.936,939.016c-26.918,1.559-55.969,3.317-83.377,9.643c1.154-11.072,2.31-22.144,3.466-33.216
		c28.221,6.464,56.78,10.473,85.619,12.043C303.551,931.048,301.629,934.863,299.936,939.016z M649.556,1028.495
		c-16.557,11.872-45.659,29.364-85.411,36.653c-55.468,10.171-99.314-5.456-126.499-15.534
		c-63.866-23.676-104.458-64.525-124.969-88.865c-0.975,5.152-1.997,12.472-1.995,21.28c0.001,4.073-2.811,18.415,3.16,25.902
		c8.88,11.135,22.315,20.548,33.591,29.102c32.608,24.735,69.671,43.223,109.348,53.45c2.876,0.741,5.973,1.465,9.248,2.161
		c1.302-0.114,2.368,0.139,3.146,0.648c36.259,7.246,92.562,10.798,132.619-3.732c3.938-1.694,7.877-3.388,11.815-5.082
		C635.042,1073.617,649.511,1055.944,649.556,1028.495z M245.206,1091.66c-40.059-8.474-76.497-31.034-103.886-61.341
		c-0.3,5.107-0.601,10.215-0.902,15.322c-0.568,9.654-2.922,20.624,0.405,29.769c5.452,14.985,25.182,27.758,38.164,36.09
		c30.647,19.667,66.162,27.143,102.184,27.351c58.303,0.337,114.606-11.704,166.502-37.458c-13.74-3.508-27.211-7.92-40.322-13.23
		C354.944,1099.858,297.79,1102.783,245.206,1091.66z"/>
    <path fill="#F3CF43" d="M694.541,416.196c-2.039-2.096-3.122-4.298-3.696-5.773c4.649,1.839,9.646,2.26,14.223,1.143
		c0.328,0.396,0.842,0.991,1.516,1.67c4.269,4.302,8.141,5.089,8.029,6.129c-0.078,0.719-2.052,1.518-10.564,1.825
		C702.343,420.88,698.111,419.866,694.541,416.196z M642.078,385.157c0.11-0.108,0.245-0.267,0.343-0.485
		c0,0,0.146-0.324,0.141-0.728c-0.01-0.682-2.695-9.162-8.364-8.818c-2.355,0.143-4.136,1.742-4.477,2.048
		c-1.135,1.019-1.738,2.136-2.043,2.824c1.594,1.342,3.1,2.803,4.5,4.361C635.477,383.881,638.867,384.132,642.078,385.157z
		 M700.13,404.089c3.856-0.324,6.667-1.848,8.071-2.744c-9.228-4.51-16.921-11.353-22.138-20.344
		c-6.779-3.278-11.125-2.843-13.06,1.272c1.352,2.898,3.457,6.649,6.704,10.511c3.518,4.184,7.156,7.046,9.937,8.911
		C691.077,402.529,694.952,404.525,700.13,404.089z M728.572,400.451c2.763-0.765,4.698-2.215,5.795-3.196
		c-9.197-6.191-17.49-13.537-24.712-21.965c-0.062-0.073-0.09-0.145-0.143-0.218c-7.664-3.796-12.319-2.907-14.013,2.588
		c7.204,7.083,14.407,14.167,21.611,21.25C718.238,399.54,722.955,402.006,728.572,400.451z M678.215,422.726
		c0.566,0.234,3.132,1.223,6.05,0.096c2.345-0.906,3.551-2.65,3.937-3.265c-1.486-0.879-3.087-1.998-4.68-3.427
		c-0.433-0.389-0.841-0.778-1.225-1.165c-1.058,0.566-2.46,1.187-4.174,1.629c-2.314,0.596-4.333,0.643-5.766,0.562
		c0.553,0.879,1.358,1.975,2.497,3.073C676.07,421.402,677.272,422.198,678.215,422.726z M643.957,414.509
		c2.077,0.88,3.925,1.404,5.593,1.649c0.836,0.143,4.254,0.631,6.778-1.533c0.508-0.436,0.904-0.913,1.212-1.383
		c-7.335-5.591-13.354-12.515-17.909-20.565c-2.623-1-11.205,0.502-14.053,2.405c1.888,3.063,4.468,6.687,7.941,10.398
		C637.21,409.424,640.878,412.368,643.957,414.509z M667.364,410.28c4.145,1.194,12.177-1.423,15.453-4.731
		c-8.669-4.429-15.428-11.558-19.421-20.459c-0.57-0.548-1.994-1.771-4.196-2.187c-0.682-0.129-1.966-0.356-3.427,0.096
		c-1.667,0.516-2.893,1.925-5.277,4.721c-0.651,0.764-1.162,1.405-1.486,1.819C653.58,397.765,659.824,404.709,667.364,410.28z
		 M741.126,401.159c-0.716,0.869-1.494,1.64-2.313,2.34c3.103,2.309,5.583,5.32,7.275,8.815c0.009,0.009,0.02,0.013,0.028,0.022
		c3.378,0.834,6.756,1.668,10.135,2.502c-1.423-4.607-4.051-8.583-7.787-11.692C745.991,402.89,743.51,402.224,741.126,401.159z
		 M758.417,391.13c-8.528-6.683-16.154-14.326-22.8-22.889c-6.671-3.445-11.553-1.31-14.975,2.516
		c-0.126,0.705-0.264,1.405-0.379,2.113c4.292,4.536,9.275,9.302,15.016,14.058c3.22,2.668,6.385,5.089,9.452,7.286
		C748.751,397.825,753.313,396.803,758.417,391.13z M619.021,390.984c1.132-1.151,2.38-2.167,3.718-3.042
		c-4.817-5.419-13.566-13.322-20.723-5.321c1.214,2.898,3.221,5.294,5.868,7.028C611.55,389.356,615.321,389.772,619.021,390.984z
		 M630.046,420.333c1.979-0.719,3.354-1.836,4.162-2.62c-7.367-5.384-13.4-12.044-18.191-19.799
		c-1.644-0.941-3.331-1.513-5.06-1.718c-7.252-0.858-12.716,4.314-13.607,5.199c2.747,3.188,6.399,6.898,11.1,10.549
		c4.869,3.78,9.529,6.461,13.401,8.354C622.945,420.685,626.285,421.7,630.046,420.333z M590.977,396.994
		c0.109,0.045,0.199,0.08,0.256,0.102c1.846-1.742,3.863-3.198,6.013-4.345c-2.25-2.199-3.973-4.878-5.083-7.853
		c-1.161-2.595-3.567-4.319-6.2-4.416c-2.648-0.097-4.479,1.489-4.904,1.877c0.63,2.175,1.353,3.907,1.921,5.122
		C584.533,390.809,586.659,395.211,590.977,396.994z M592.988,426.57c0.189,0.082,0.386,0.151,0.554,0.268
		c5.563,4.769,11.819,3.423,18.748-3.881c-9.674-3.957-18.093-10.142-24.635-18.405c-4.221,0.694-8.443,1.387-12.664,2.081
		C579.984,414.178,586.017,420.825,592.988,426.57z M583.934,429.907c-6.978-5.73-13.026-12.39-18.082-19.867
		c-2.187-0.073-4.374-0.146-6.56-0.219C540.134,419.711,562.265,447.311,583.934,429.907z M565.29,921.053
		c-33.728-15.303-69.988-24.377-106.928-26.965c-53.17-3.725-121.211-3.125-144.442,54.218
		c37.209,48.503,86.643,80.551,145.724,96.409c36.466,9.788,74.901,16.627,112.108,7.086c29.368-7.531,55.605-23.361,77.348-44.27
		C639.536,962.123,605.283,939.197,565.29,921.053z M205.112,1067.029c26.34,11.759,48.303,14.356,71.45,16.902
		c26.266,2.89,65.011,4.365,112.119-4.06c-15.31-7.383-30.064-15.98-44.098-25.774c-1.004-0.701-1.969-1.455-2.964-2.167
		c-23.329,5.692-42.422,6.126-54.813,5.624c-61.175-2.48-97.108-33.407-100.133-41.743c-0.313-0.863-1.207-3.325-0.218-4.23
		c1.986-1.816,10.061,4.008,11.113,4.814c37.412,28.64,86.156,34.924,131.378,25.997c-9.925-7.837-19.454-16.18-28.462-25.051
		c-8.28-8.154-7.375-8.606-6.217-20.957c0.644-6.871,1.288-13.741,1.932-20.612c-21.629-2.451-43.121,2.024-62.437,13.085
		c-3.735,2.139-13.977-9.127-14.09-9.062c23.745-13.598,50.641-17.337,77.194-11.138c0.604-6.444,1.208-12.888,1.812-19.332
		c-38.142,2.38-79.939,6.484-113.259,24.849c-5.737,3.162-12.229,8.728-15.771,11.54c-24.054,19.099-27.399,29.045-27.809,35.764
		c-0.002,0.04-0.004,0.072-0.005,0.09C153.967,1034.574,174.679,1053.443,205.112,1067.029z M729.882,418.208
		c1.257-0.192,3.787-0.818,6.452-3.371c-1.405-2.834-3.341-5.286-5.766-7.261c-5.012,1.094-10.49,0.285-15.376-2.189
		c-0.504,0.586-1.03,1.137-1.584,1.645C717.191,414.71,723.9,419.121,729.882,418.208z M777.836,373.841
		c-3.864-14.137-18.349-21.629-32.472-8.5c6.456,8.171,13.797,15.506,21.991,21.937
		C778.156,389.392,779.832,381.146,777.836,373.841z M771.727,414.644c2.109-0.725,4.217-1.451,6.326-2.176
		c0.302-0.976,2.003-6.803-1.361-12.508c-2.418-4.101-6.085-5.818-7.396-6.359c-0.739,0.024-1.479,0.044-2.236,0.014
		c-1.812,3.489-4.418,6.034-7.499,7.617c3.455,3.554,5.893,8.012,6.994,12.884C767.577,415.724,769.305,415.891,771.727,414.644z
		 M567.427,402.442c2.596-3.729,6.237-6.025,10.304-6.931c-2.522-3.703-4.497-7.747-5.82-12.063
		c-0.257-0.375-0.669-0.902-1.282-1.407c-1.861-1.535-5.355-2.697-8.294-0.917c-2.187,1.325-3.427,3.892-3.236,6.591
		c0.091,1.683,0.469,4.579,2.097,7.724C563.179,399.268,565.973,401.455,567.427,402.442z M311.521,918.811
		c18.529-23.673,47.474-31.712,79.565-33.869c31.205-2.097,62.395-1.105,93.175,4.763c11.802,2.25,23.474,5.23,34.973,8.815
		c8.681-31.195-37.185-38.291-58.886-42.382c-27.186-5.124-55.128-6.979-82.764-6.001c-14.489,0.513-31.358,1.51-53.209,6.692
		c-21.631,5.131-39.041,12.347-51.481,18.418c-17.139,8.789-33.088,20.193-47.531,34.5c28.241,5.46,56.804,8.481,85.641,8.995
		C311.17,918.745,311.348,918.785,311.521,918.811z"/>
    <path d="M583.378,1022.136c0.807,0.913,1.389,1.574,1.054,2.569c-0.192,0.569-0.677,0.995-1.265,1.112
		c-16.177,3.282-32.246,4.882-47.97,4.882c-64.129,0-122.514-26.634-159.113-74.514c-0.674-0.883-0.512-1.649-0.355-2.025
		c0.231-0.553,0.915-1.041,1.508-1.116c2.367-0.412,12.578,5,14.547,7.575c37.218,48.688,101.947,67.82,177.592,52.461h0.002
		C574.314,1012.071,582.465,1021.102,583.378,1022.136z M412.354,911.03c-0.002,0-0.003,0-0.005,0
		c-0.921,0.078-1.603,0.89-1.525,1.81c0.043,0.51,0.309,0.946,0.695,1.224c0.131,0.124,0.35,0.357,0.645,0.661
		c4.512,4.682,9.634,9.499,13.595,9.096c55.723-4.614,109.358,13.098,147.119,48.599c0.093,0.089,9.252,6.4,13.206,6.4
		c0.596,0,1.075-0.144,1.386-0.474c1.404-1.495-0.424-3.213-1.112-3.858C537.984,929.01,474.59,905.877,412.354,911.03z
		 M1076.488,855.966c4.379,62.488-3.376,130.685-47.353,178.876c-43.088,47.217-116.684,57.104-176.49,67.186
		c-80.666,13.598-163.898,11.225-244.026-4.712c-0.687-0.137-1.307-0.345-1.89-0.591c-41.167,15.606-94.754,16.015-128.486,10.903
		c-5.625-0.852-11.212-1.871-16.764-3.024c-59.363,31.842-125.425,46.797-192.829,45.293c-38.45-0.858-76.27-10.299-108.166-32.426
		c-8.289-5.75-16.052-12.241-23.232-19.322c-3.646-3.596-12.2-10.161-13.915-15.314c-2.473-7.433,0.911-21.445,1.359-29.062
		c0.887-15.087-1.388-20.881,2.001-34.022c0.479-1.859,1.296-4.979,2.871-8.921c5.219-13.059,13.136-21.033,20.878-28.673
		c5.106-5.038,11.73-12.302,23.014-18.178c8.787-4.575,18.072-8.209,27.65-11.171c3.688-17.107,4.214-29.503,3.951-37.863
		c-0.072-2.301-0.234-5.242,0.921-8.919c3.132-9.965,13.503-13.443,21.159-19.501c11.044-8.739,22.791-16.04,35.078-22.063
		c3.007-53.169,13.739-105.703,33.038-155.396c46.319-119.272,138.951-214.649,248.728-277.947
		c-5.438-9.713,0.71-21.005,12.125-26.169c-11.97-11.71-3.615-28.51,7.64-32.329c-1.573-2.086-2.708-4.155-2.735-5.869
		c-0.357-22.843-8.5-41.403-28.879-53.026c-12.382-7.062-26.012-11.915-39.401-16.667c-24.734-8.78-52.094-13.147-74.671-27.078
		c-14.644-9.037-31.702-24.986-35.221-42.755c-3.749-18.928,13.933-36.842,24.59-50.151c12.248-15.295,26.079-33.855,47.076-36.325
		c20.455-2.406,44.579,6.875,63.638,12.945c11.331,3.609,20.198,8.597,31.87,3.119c14.124-6.629,24.67-22.264,34.427-33.77
		c16.263-19.178,32.125-39.125,50.169-56.694c5.804-5.651,11.637-10.91,19.433-13.452c35.801-11.673,75.269,13.827,94.18,42.769
		c8.912,13.639,17.087,26.138,30.937,35.642c10.324,7.084,21.825,12.568,33.692,16.528c20.517,6.847,40.507,6.857,61.719,3.951
		c37.612-5.153,67.936,25.5,77.377,60.595c10.662,39.64-24.286,74.95-60.366,84.83c-22.746,6.228-44.998,5.809-65.915,18.443
		c-18.328,11.07-32.264,27.274-43.713,45.085c1.585,1.88,2.998,4.084,4.157,6.695c4.992,11.241,1.509,19.289-5.685,23.307
		c9.224,7.384,9.169,17.233,4.892,24.513c74.439,73.487,143.227,154.328,204.878,238.823
		C1034.059,714.195,1071.183,780.261,1076.488,855.966z M573.212,372.773c1.357,0.54,2.683,1.343,3.959,2.41
		c5.824-4.134,13.237-2.945,19.53,1.566c2.657-2.326,5.542-3.728,8.538-4.328c-4.306-39.686-21.535-75.803-49.889-104.016
		c-3.595-3.577,11.814-1.498,14.695,1.369c28.765,28.623,46.68,65.37,51.09,105.705c0.012,0.007,0.025,0.012,0.038,0.019
		c2.819-3.09,6.749-4.879,11.342-5.058c1.82-0.071,3.575,0.153,5.272,0.562c-3.952-21.832-3.512-43.964,1.417-65.807
		c0.798-3.537,16.944,0.831,16.043,4.825c-5.013,22.217-5.421,44.486-1.11,66.652c4.138-1.112,8.578-0.895,12.775,0.966
		c3.148-3.392,7.257-5.203,11.644-5.607c-7.972-49.19,4.327-98.074,33.108-138.556c3.747-5.27,16.346,5.701,12.357,11.312
		c-26.204,36.857-37.819,80.829-32.555,125.507c4.766-4.056,11.21-5.214,17.457-3.749c4.326-32.631,19.161-61.875,42.896-84.723
		c3.388-3.261,12.789,10.324,8.543,14.411c-18.906,18.199-31.804,40.85-37.918,65.945c5.332-2.116,11.275-2.407,16.988-0.518
		c2.766-2.199,6.984-5.035,12.651-7.13c4.525-1.672,8.598-2.363,11.699-2.648c0.417-0.678,1.038-1.678,1.804-2.876
		c2.468-3.855,22.778-37.299,50.39-52.821c22.264-12.515,46.871-10.259,70.023-18.973c16.771-6.312,33.715-18.738,44.189-33.32
		c18.717-26.055,12.364-69.595-24.272-75.107c-16.979-2.555-34.568,4.231-51.832,3.019c-19.313-1.356-38.49-7.966-55.258-17.465
		c-17.316-9.809-32.173-23.189-43.617-39.46c-11.62-16.52-20.378-30.707-39.617-39.066c-16.265-7.067-37.36-11.452-53.985-3.187
		c-9.321,4.634-16.841,13.742-23.761,21.197c-16.757,18.05-32.263,37.203-48.359,55.831c-8.195,9.484-17.39,21.775-29.701,26.136
		c-9.29,3.291-16.11,0.515-24.928-2.539c-19.435-6.73-44.022-15.872-64.971-14.938c-18.577,0.828-31.716,14.636-42.914,27.969
		c-9.798,11.666-34.637,35.124-31.791,52.798c3.032,18.831,43.022,26.751,58.075,31.189c22.897,6.751,46.7,13.961,67.62,25.694
		C549.31,311.91,569.177,340.677,573.212,372.773z M758.417,391.13c-8.528-6.683-16.154-14.326-22.8-22.889
		c-6.671-3.445-11.553-1.31-14.975,2.516c-0.126,0.705-0.264,1.405-0.379,2.113c4.292,4.536,9.275,9.302,15.016,14.058
		c3.22,2.668,6.385,5.089,9.452,7.286C748.751,397.825,753.313,396.803,758.417,391.13z M748.465,403.145
		c-2.473-0.255-4.955-0.922-7.338-1.987c-0.716,0.869-1.494,1.64-2.313,2.34c3.103,2.309,5.583,5.32,7.275,8.815
		c0.009,0.009,0.02,0.013,0.028,0.022c3.378,0.834,6.756,1.668,10.135,2.502C754.829,410.231,752.2,406.255,748.465,403.145z
		 M574.992,406.633c4.992,7.545,11.025,14.192,17.997,19.936c0.189,0.082,0.386,0.151,0.554,0.268
		c5.563,4.769,11.819,3.423,18.748-3.881c-9.674-3.957-18.093-10.142-24.635-18.405
		C583.435,405.246,579.213,405.939,574.992,406.633z M582.98,387.481c1.553,3.328,3.679,7.73,7.997,9.513
		c0.109,0.045,0.199,0.08,0.256,0.102c1.846-1.742,3.863-3.198,6.013-4.345c-2.25-2.199-3.973-4.878-5.083-7.853
		c-1.161-2.595-3.567-4.319-6.2-4.416c-2.648-0.097-4.479,1.489-4.904,1.877C581.689,384.534,582.412,386.266,582.98,387.481z
		 M621.85,420.298c1.095,0.386,4.435,1.402,8.196,0.035c1.979-0.719,3.354-1.836,4.162-2.62c-7.367-5.384-13.4-12.044-18.191-19.799
		c-1.644-0.941-3.331-1.513-5.06-1.718c-7.252-0.858-12.716,4.314-13.607,5.199c2.747,3.188,6.399,6.898,11.1,10.549
		C613.318,415.725,617.978,418.406,621.85,420.298z M607.883,389.648c3.667-0.292,7.437,0.124,11.137,1.336
		c1.132-1.151,2.38-2.167,3.718-3.042c-4.817-5.419-13.566-13.322-20.723-5.321C603.23,385.518,605.236,387.915,607.883,389.648z
		 M643.957,414.509c2.077,0.88,3.925,1.404,5.593,1.649c0.836,0.143,4.254,0.631,6.778-1.533c0.508-0.436,0.904-0.913,1.212-1.383
		c-7.335-5.591-13.354-12.515-17.909-20.565c-2.623-1-11.205,0.502-14.053,2.405c1.888,3.063,4.468,6.687,7.941,10.398
		C637.21,409.424,640.878,412.368,643.957,414.509z M632.179,384.358c3.298-0.477,6.687-0.226,9.899,0.799
		c0.11-0.108,0.245-0.267,0.343-0.485c0,0,0.146-0.324,0.141-0.728c-0.01-0.682-2.695-9.162-8.364-8.818
		c-2.355,0.143-4.136,1.742-4.477,2.048c-1.135,1.019-1.738,2.136-2.043,2.824C629.273,381.34,630.779,382.801,632.179,384.358z
		 M667.364,410.28c4.145,1.194,12.177-1.423,15.453-4.731c-8.669-4.429-15.428-11.558-19.421-20.459
		c-0.57-0.548-1.994-1.771-4.196-2.187c-0.682-0.129-1.966-0.356-3.427,0.096c-1.667,0.516-2.893,1.925-5.277,4.721
		c-0.651,0.764-1.162,1.405-1.486,1.819C653.58,397.765,659.824,404.709,667.364,410.28z M672.357,417.156
		c0.553,0.879,1.358,1.975,2.497,3.073c1.216,1.172,2.419,1.969,3.361,2.497c0.566,0.234,3.132,1.223,6.05,0.096
		c2.345-0.906,3.551-2.65,3.937-3.265c-1.486-0.879-3.087-1.998-4.68-3.427c-0.433-0.389-0.841-0.778-1.225-1.165
		c-1.058,0.566-2.46,1.187-4.174,1.629C675.809,417.19,673.79,417.238,672.357,417.156z M689.643,401.695
		c1.434,0.834,5.308,2.83,10.487,2.395c3.856-0.324,6.667-1.848,8.071-2.744c-9.228-4.51-16.921-11.353-22.138-20.344
		c-6.779-3.278-11.125-2.843-13.06,1.272c1.352,2.898,3.457,6.649,6.704,10.511C683.224,396.968,686.862,399.83,689.643,401.695z
		 M717.109,398.91c1.129,0.63,5.846,3.097,11.463,1.541c2.763-0.765,4.698-2.215,5.795-3.196
		c-9.197-6.191-17.49-13.537-24.712-21.965c-0.062-0.073-0.09-0.145-0.143-0.218c-7.664-3.796-12.319-2.907-14.013,2.588
		C702.702,384.743,709.906,391.826,717.109,398.91z M690.845,410.423c0.574,1.475,1.657,3.677,3.696,5.773
		c3.57,3.67,7.802,4.684,9.508,4.994c8.512-0.307,10.486-1.106,10.564-1.825c0.112-1.04-3.76-1.827-8.029-6.129
		c-0.674-0.679-1.188-1.275-1.516-1.67C700.491,412.683,695.494,412.261,690.845,410.423z M729.882,418.208
		c1.257-0.192,3.787-0.818,6.452-3.371c-1.405-2.834-3.341-5.286-5.766-7.261c-5.012,1.094-10.49,0.285-15.376-2.189
		c-0.504,0.586-1.03,1.137-1.584,1.645C717.191,414.71,723.9,419.121,729.882,418.208z M767.354,387.278
		c10.802,2.114,12.478-6.132,10.482-13.436c-3.864-14.137-18.349-21.629-32.472-8.5
		C751.819,373.512,759.161,380.847,767.354,387.278z M759.561,401.232c3.455,3.554,5.893,8.012,6.994,12.884
		c1.022,1.608,2.75,1.774,5.171,0.528c2.109-0.725,4.217-1.451,6.326-2.176c0.302-0.976,2.003-6.803-1.361-12.508
		c-2.418-4.101-6.085-5.818-7.396-6.359c-0.739,0.024-1.479,0.044-2.236,0.014C765.248,397.104,762.642,399.649,759.561,401.232z
		 M559.099,387.716c0.091,1.683,0.469,4.579,2.097,7.724c1.982,3.829,4.777,6.015,6.231,7.002c2.596-3.729,6.237-6.025,10.304-6.931
		c-2.522-3.703-4.497-7.747-5.82-12.063c-0.257-0.375-0.669-0.902-1.282-1.407c-1.861-1.535-5.355-2.697-8.294-0.917
		C560.148,382.449,558.907,385.017,559.099,387.716z M583.934,429.907c-6.978-5.73-13.026-12.39-18.082-19.867
		c-2.187-0.073-4.374-0.146-6.56-0.219C540.134,419.711,562.265,447.311,583.934,429.907z M225.363,909.747
		c28.241,5.46,56.804,8.481,85.641,8.995c0.166,0.003,0.344,0.043,0.517,0.068c18.529-23.673,47.474-31.712,79.565-33.869
		c31.205-2.097,62.395-1.105,93.175,4.763c11.802,2.25,23.474,5.23,34.973,8.815c8.681-31.195-37.185-38.291-58.886-42.382
		c-27.186-5.124-55.128-6.979-82.764-6.001c-14.489,0.513-31.358,1.51-53.209,6.692c-21.631,5.131-39.041,12.347-51.481,18.418
		C255.754,884.036,239.805,895.44,225.363,909.747z M458.362,894.088c-53.17-3.725-121.211-3.125-144.442,54.218
		c37.209,48.503,86.643,80.551,145.724,96.409c36.466,9.788,74.901,16.627,112.108,7.086c29.368-7.531,55.605-23.361,77.348-44.27
		c-9.564-45.408-43.817-68.334-83.81-86.478C531.561,905.75,495.301,896.676,458.362,894.088z M216.559,948.659
		c27.408-6.326,56.459-8.084,83.377-9.643c1.694-4.153,3.615-7.968,5.708-11.53c-28.839-1.57-57.398-5.578-85.619-12.043
		C218.869,926.515,217.713,937.587,216.559,948.659z M141.835,1021.567c12.132,13.007,32.844,31.875,63.277,45.462
		c26.34,11.759,48.303,14.356,71.45,16.902c26.266,2.89,65.011,4.365,112.119-4.06c-15.31-7.383-30.064-15.98-44.098-25.774
		c-1.004-0.701-1.969-1.455-2.964-2.167c-23.329,5.692-42.422,6.126-54.813,5.624c-61.175-2.48-97.108-33.407-100.133-41.743
		c-0.313-0.863-1.207-3.325-0.218-4.23c1.986-1.816,10.061,4.008,11.113,4.814c37.412,28.64,86.156,34.924,131.378,25.997
		c-9.925-7.837-19.454-16.18-28.462-25.051c-8.28-8.154-7.375-8.606-6.217-20.957c0.644-6.871,1.288-13.741,1.932-20.612
		c-21.629-2.451-43.121,2.024-62.437,13.085c-3.735,2.139-13.977-9.127-14.09-9.062c23.745-13.598,50.641-17.337,77.194-11.138
		c0.604-6.444,1.208-12.888,1.812-19.332c-38.142,2.38-79.939,6.484-113.259,24.849c-5.737,3.162-12.229,8.728-15.771,11.54
		c-24.054,19.099-27.399,29.045-27.809,35.764C141.838,1021.517,141.836,1021.549,141.835,1021.567z M447.675,1101.393
		c-13.74-3.508-27.211-7.92-40.322-13.23c-52.408,11.696-109.562,14.62-162.146,3.497c-40.059-8.474-76.497-31.034-103.886-61.341
		c-0.3,5.107-0.601,10.215-0.902,15.322c-0.568,9.654-2.922,20.624,0.405,29.769c5.452,14.985,25.182,27.758,38.164,36.09
		c30.647,19.667,66.162,27.143,102.184,27.351C339.476,1139.188,395.778,1127.147,447.675,1101.393z M613.61,1084.479
		c21.432-10.862,35.901-28.535,35.946-55.984c-16.557,11.872-45.659,29.364-85.411,36.653
		c-55.468,10.171-99.314-5.456-126.499-15.534c-63.866-23.676-104.458-64.525-124.969-88.865c-0.975,5.152-1.997,12.472-1.995,21.28
		c0.001,4.073-2.811,18.415,3.16,25.902c8.88,11.135,22.315,20.548,33.591,29.102c32.608,24.735,69.671,43.223,109.348,53.45
		c2.876,0.741,5.973,1.465,9.248,2.161c1.302-0.114,2.368,0.139,3.146,0.648c36.259,7.246,92.562,10.798,132.619-3.732
		C605.733,1087.867,609.672,1086.173,613.61,1084.479z M1055.26,817.144c-15.794-75.992-63.788-140.404-110.982-200.029
		c-53.161-67.164-108.442-132.585-169.297-192.93c-4.605,1.702-9.707,1.272-14.096-2.494c-5.95,4.134-13.135,3.228-19.486-1.451
		c-5.211,4.335-11.179,5.271-17.074,3.926c36.373,32.555,60.395,76.212,68.402,124.682c1.773,10.734-13.379,10.686-14.955,1.146
		c-7.959-48.183-32.39-90.931-70.618-121.501c-0.549-0.439-1.008-0.913-1.414-1.404c-4.168-0.169-8.606-1.76-12.766-4.085
		c-0.217,0.133-0.438,0.25-0.656,0.375c12.323,19.325,18.201,41.576,17.18,64.597c-0.339,7.633-15.832,12.566-15.411,3.056
		c0.994-22.424-5.266-43.701-18.082-62.09c-0.647-0.929-0.906-1.91-0.909-2.895c-4.782-1.07-9.243-3.631-12.742-7.573
		c-0.878,0.717-1.809,1.35-2.778,1.912c-10.006,47.088-9.979,95.085,0.1,142.173c1.381,6.454-14.978,10.058-16.343,3.683
		c-10.168-47.503-10.239-96.096-0.307-143.615c-0.835-0.224-1.655-0.509-2.464-0.838c-5.378,5.599-13.925,7.28-21.176,4.498
		c-3.303,3.575-7.2,6.397-11.41,8.102c-33.769,37.733-55.127,84.069-61.452,134.579c-0.521,4.158-14.483,6.027-14.728,7.984
		c6.664-53.223,29.865-101.882,66.739-140.767c0.006-0.006,0.015-0.011,0.021-0.017c-3.027-0.087-6.1-0.838-9.142-2.327
		c-9.044,6.84-20.613,11.179-31.309,7.993c-0.064,0.04-0.105,0.092-0.172,0.13C403.501,529.2,291.936,679.164,276.808,858.021
		c41.367-16.481,87.806-20.049,133.717-16.209c30.662,2.565,62.897,7.547,90.627,21.58c15.836,8.014,35.559,20.669,32.997,40.161
		c23.004,8.357,45.177,19.134,66.041,31.691c28.877,17.379,51.727,40.214,61.022,72.596c1.573,0.313,2.725,1.241,2.975,2.999
		c5.206,36.628-11.183,60.788-37.004,76.145c77.231,13.381,157.45,13.843,234.374-1.429c66.648-13.232,138.578-24.149,174.65-88.915
		C1065.497,944.052,1067.309,875.115,1055.26,817.144z M937.733,684.825c-3.874-5.216-20.169-2.408-16.078,3.102
		c24.944,33.586,44.264,71.2,55.759,111.498c12.808,44.898,25.591,96.836,11.035,142.773
		c-20.847,65.791-92.032,94.166-156.255,92.238c-10.263-0.308-9.867,9.75,0.267,10.054c64.115,1.924,137.55-23.597,166.361-85.064
		c22.008-46.954,10.662-99.94-1.332-147.91C985.981,765.485,966.017,722.909,937.733,684.825z"/>
</g>
</svg>
