<?xml version="1.0" standalone="no"?>
<!DOCTYPE svg PUBLIC "-//W3C//DTD SVG 20010904//EN"
        "http://www.w3.org/TR/2001/REC-SVG-20010904/DTD/svg10.dtd">
<svg version="1.0" xmlns="http://www.w3.org/2000/svg"
     width="300.000000pt" height="300.000000pt" viewBox="0 0 300.000000 300.000000"
     preserveAspectRatio="xMidYMid meet">

    <g transform="translate(-90.000000,390.000000) scale(0.160000,-0.160000)"
       fill="currentColor" stroke="none">
        <path d="M1175 2374 c-64 -33 -95 -82 -95 -148 0 -56 16 -83 95 -161 41 -40
75 -78 75 -84 0 -6 -13 -17 -29 -25 -41 -22 -54 -63 -49 -150 5 -72 4 -74 -22
-90 -46 -26 -132 -121 -172 -188 -178 -293 -67 -689 237 -844 110 -56 162 -69
285 -69 123 0 175 13 285 69 304 155 415 551 237 844 -40 67 -126 162 -172
188 -26 16 -27 18 -22 90 5 87 -8 128 -49 150 -16 8 -29 19 -29 25 0 6 34 44
75 84 41 41 79 85 85 100 26 68 3 146 -56 191 l-37 29 -306 3 c-264 2 -310 0
-336 -14z m637 -104 c27 -34 18 -78 -24 -110 -55 -42 -97 -92 -120 -142 -21
-48 -22 -48 -70 -48 -29 0 -48 4 -48 11 0 34 27 94 57 125 37 39 40 55 17 78
-24 25 -53 19 -90 -18 l-34 -34 -34 34 c-70 70 -147 18 -80 -53 29 -31 63 -98
64 -125 0 -15 -9 -18 -49 -18 -45 0 -49 2 -62 33 -21 52 -68 113 -114 146 -23
17 -46 42 -49 55 -8 34 9 75 36 86 13 5 147 8 301 7 l279 -2 20 -25z m-94
-399 c8 -1 12 -17 12 -46 l0 -45 -230 0 -230 0 0 44 c0 39 3 45 23 48 18 2
384 2 425 -1z m58 -219 c364 -236 295 -781 -117 -923 -89 -31 -229 -31 -318 0
-134 47 -239 139 -301 266 -116 237 -39 513 184 657 l59 38 217 0 217 0 59
-38z"/>
        <path d="M1853 1255 c-15 -10 -23 -30 -28 -70 -19 -152 -139 -274 -289 -291
-70 -8 -95 -31 -77 -70 11 -26 14 -26 80 -22 195 14 373 192 375 375 1 55 -2
67 -19 79 -18 12 -24 12 -42 -1z"/>
    </g>
</svg>
